<svg viewBox="0 0 100 200" xmlns="http://www.w3.org/2000/svg"
     style="--glass:transparent;--outline:currentColor;--liquid:transparent;--shine:transparent;--cap:transparent;--label:transparent">

  <defs>
    <!-- Liquid clip -->
    <clipPath id="liqClip">
      <path d="M25 70 Q25 62 32 58 Q39 54 44 54 L56 54 Q61 54 68 58 Q75 62 75 70 L75 172 Q75 178 70 178 L30 178 Q25 178 25 172 Z"/>
    </clipPath>

    <!-- Top half of rim -->
    <clipPath id="rimTopHalf">
      <rect x="0" y="0" width="100" height="28"/>
    </clipPath>
  </defs>

  <!-- Glass body -->
  <path d="M25 70 Q25 62 32 58 Q39 54 44 54 L56 54 Q61 54 68 58 Q75 62 75 70 L75 176 Q75 186 65 186 L35 186 Q25 186 25 176 Z"
        fill="var(--glass)" stroke="var(--outline)" stroke-width="3"
        stroke-linejoin="round"/>

  <!-- Neck -->
  <path d="M43 54 L43 29.2 Q43 26 46 25 L54 25 Q57 26 57 29.2 L57 54 Z"
        fill="var(--glass)" stroke="var(--outline)" stroke-width="3"
        stroke-linejoin="round"/>

  <!-- Cap body -->
  <path d="M38 12 Q38 8 42 8 L58 8 Q62 8 62 12 L62 24 Q62 28 58 28 L42 28 Q38 28 38 24"
        fill="var(--cap)" stroke="var(--outline)" stroke-width="3"
        stroke-linejoin="round" stroke-linecap="round"/>

  <!-- Rim -->
  <g clip-path="url(#rimTopHalf)">
    <ellipse cx="50" cy="28" rx="10" ry="3.2"
             fill="none" stroke="var(--outline)" stroke-width="2" opacity="0.95"/>
  </g>

  <!-- Liquid -->
  <g clip-path="url(#liqClip)">
    <rect x="20" y="104" width="60" height="84" fill="var(--liquid)"/>
    <path d="M25 104 Q40 100 50 104 Q60 108 75 104"
          fill="none" stroke="var(--outline)" stroke-opacity=".08" stroke-width="2"/>
  </g>

  <!-- Shine strip (variable color) -->
  <path d="M29 76 Q29 72 33 72 L40 72 Q43 72 43 76 L43 150 Q43 154 40 154 L33 154 Q29 154 29 150 Z"
        fill="var(--shine)"/>

  <!-- Label (variable color) -->
  <rect x="33" y="118" width="34" height="28" rx="6"
        fill="var(--label)" stroke="var(--outline)" stroke-width="3"/>

  <!-- Highlight line on label/liquid (variable outline color) -->
  <path d="M35 156 Q36 162 33 166" fill="none"
        stroke="var(--outline)" stroke-opacity=".35" stroke-width="3" stroke-linecap="round"/>
</svg>
